<?xml version="1.0" encoding="UTF-8" standalone="no"?>
<!DOCTYPE svg PUBLIC "-//W3C//DTD SVG 1.1//EN" "http://www.w3.org/Graphics/SVG/1.1/DTD/svg11.dtd">
<svg fill="#fff" width="100%" height="100%" viewBox="0 0 16 17" version="1.1" xmlns="http://www.w3.org/2000/svg" xmlns:xlink="http://www.w3.org/1999/xlink" xml:space="preserve" xmlns:serif="http://www.serif.com/" style="fill-rule:evenodd;clip-rule:evenodd;stroke-linejoin:round;stroke-miterlimit:2;">
    <g id="Artboard1" transform="matrix(0.652891,0,0,0.602935,-1.67226,-3.57328)">
        <rect x="2.561" y="5.926" width="24.257" height="26.762" style="fill:none;"/>
        <g transform="matrix(1.53165,0,0,1.65855,-72.1085,-11.9138)">
            <path d="M54.161,16.809C54.025,16.662 53.889,16.512 53.764,16.365C53.345,15.848 53.15,15.394 53.147,14.936C53.143,14.454 53.314,14.042 53.638,13.748C53.924,13.49 54.325,13.34 54.736,13.34L54.753,13.34C55.963,13.34 56.416,14.258 56.583,15.034L56.604,15.139L58.647,13.476L58.671,13.455L58.661,13.427C58.013,11.76 56.618,10.845 54.736,10.845L54.691,10.845C52.742,10.859 50.696,12.145 50.55,14.573C50.546,14.629 50.543,14.685 50.543,14.744C50.543,14.762 50.543,14.779 50.539,14.797C50.543,14.824 50.543,14.849 50.543,14.873L50.546,14.901C50.571,16.107 51.296,17.239 51.749,17.829C50.173,19.063 49.201,20.236 49.201,22.249C49.201,23.405 49.675,24.534 50.508,25.352C51.446,26.274 52.756,26.763 54.297,26.763C56.2,26.763 57.821,26.015 58.87,24.656L60.564,26.253L60.578,26.263L64.193,26.267L54.161,16.809ZM53.492,19.583L56.915,22.815C56.482,23.577 55.656,24.471 54.154,24.471C53.819,24.471 53.499,24.412 53.202,24.296C52.394,23.926 51.871,23.126 51.871,22.252C51.871,21.222 52.317,20.457 53.363,19.688L53.492,19.583Z" style="fill-rule:nonzero;"/>
        </g>
    </g>
</svg>
