<svg width="160" height="170" viewBox="0 0 160 170" fill="none" xmlns="http://www.w3.org/2000/svg">
<path d="M52.2009 64.3289L52.224 64.354L52.2489 64.3774L157.479 163.586L121.781 163.546L103.877 146.668L103.074 145.911L102.399 146.785C91.4154 161.014 74.4238 168.882 54.3863 168.882C38.155 168.882 24.4421 163.736 14.6498 154.11L14.6494 154.11C5.94968 145.567 1 133.775 1 121.707C1 111.144 3.54536 102.83 8.13556 95.5364C12.7403 88.2198 19.4327 81.882 27.8097 75.3229L28.5896 74.7122L27.9863 73.9266C23.177 67.6628 15.6139 55.7999 15.3541 43.2662L15.3532 43.2232L15.3486 43.1804L15.3223 42.9347C15.3222 42.7324 15.3207 42.4797 15.2907 42.2015C15.3226 41.977 15.3224 41.777 15.3223 41.6365L15.3223 41.6114C15.3223 41.0154 15.3526 40.4441 15.3945 39.8577L15.3945 39.8577L15.3952 39.8465C16.9135 14.5967 38.1738 1.14824 58.5949 1H59.0715C78.6335 1 93.0648 10.4032 99.882 27.5458L79.6537 44.0116C78.7198 39.9145 77.0253 35.427 73.9453 31.9032C70.7114 28.2033 66.0008 25.6275 59.2529 25.6275H59.0715C54.4531 25.6275 49.9306 27.31 46.6834 30.2393L46.6813 30.2412C42.9907 33.59 41.0684 38.2704 41.1132 43.6688C41.1477 48.8644 43.3683 53.9233 47.9211 59.5409L47.9285 59.5501L47.9362 59.5591C49.2835 61.1435 50.7458 62.7562 52.2009 64.3289ZM46.4816 92.5277L45.844 91.9257L45.1638 92.4793L43.8061 93.5844C38.1661 97.7336 34.0795 101.918 31.4063 106.51C28.7222 111.12 27.4952 116.087 27.4952 121.739C27.4952 131.469 33.315 140.356 42.2838 144.463L42.3097 144.475L42.3363 144.485C45.6272 145.77 49.1663 146.421 52.8602 146.421C69.379 146.421 78.4718 136.556 83.196 128.242L83.5838 127.559L83.0131 127.021L46.4816 92.5277Z" stroke="white" stroke-width="2"/>
</svg>
